<svg width="35" height="35" viewBox="0 0 35 35" fill="none" xmlns="http://www.w3.org/2000/svg">
<g clip-path="url(#clip0_85_2871)">
<path fill-rule="evenodd" clip-rule="evenodd" d="M16.5005 12.0672C16.7591 11.7991 17.1097 11.6484 17.4752 11.6484C17.8408 11.6484 18.1914 11.7991 18.4499 12.0672L26.249 20.1591C26.5001 20.4289 26.6391 20.7902 26.636 21.1653C26.6328 21.5403 26.4878 21.8991 26.2322 22.1643C25.9766 22.4295 25.6308 22.5799 25.2693 22.5832C24.9079 22.5865 24.5596 22.4423 24.2996 22.1817L17.4752 15.1012L10.6509 22.1817C10.3909 22.4423 10.0426 22.5865 9.68113 22.5832C9.31965 22.5799 8.97387 22.4295 8.71825 22.1643C8.46264 21.8991 8.31765 21.5403 8.31451 21.1653C8.31136 20.7902 8.45032 20.4289 8.70146 20.1591L16.5005 12.0672Z" fill="#1C1243"/>
</g>
<defs>
<clipPath id="clip0_85_2871">
<rect width="33.0878" height="34.33" fill="white" transform="translate(0.931641 0.205078)"/>
</clipPath>
</defs>
</svg>
