<svg width="14" height="20" viewBox="0 0 14 20" fill="none" xmlns="http://www.w3.org/2000/svg">
<path d="M12.83 10.74C12.55 10.17 11.76 9.69 10.71 10.5C9.28 11.64 7.00001 11.64 7.00001 11.64C7.00001 11.64 4.72 11.64 3.29 10.5C2.24001 9.69 1.45001 10.17 1.17001 10.74C0.670005 11.74 1.23001 12.23 2.50001 13.04C3.59001 13.74 5.08001 14 6.04001 14.1L5.24001 14.9C4.10001 16.03 3.00001 17.12 2.25001 17.88C1.80001 18.34 1.80001 19.07 2.25001 19.5L2.39 19.66C2.84 20.11 3.58 20.11 4.03 19.66L7.00001 16.68C8.15001 17.81 9.24 18.9 10 19.66C10.45 20.11 11.18 20.11 11.64 19.66L11.77 19.5C12.23 19.07 12.23 18.34 11.77 17.88L8.79001 14.9L8.00001 14.09C8.95001 14 10.42 13.73 11.5 13.04C12.77 12.23 13.33 11.74 12.83 10.74ZM7.00001 2.57C8.38001 2.57 9.5 3.69 9.5 5.06C9.5 6.44 8.38001 7.55 7.00001 7.55C5.62001 7.55 4.50001 6.44 4.50001 5.06C4.50001 3.69 5.62001 2.57 7.00001 2.57ZM7.00001 10.12C9.80001 10.12 12.06 7.86 12.06 5.06C12.06 3.718 11.5269 2.43097 10.578 1.48204C9.62903 0.533106 8.342 0 7.00001 0C5.65801 0 4.37098 0.533106 3.42204 1.48204C2.47311 2.43097 1.94001 3.718 1.94001 5.06C1.94001 7.86 4.20001 10.12 7.00001 10.12Z" fill="#4E4E4E"/>
</svg>
